<svg width="12" height="12" viewBox="0 0 12 12" fill="none" xmlns="http://www.w3.org/2000/svg">
<mask id="path-1-inside-1_1_58" fill="white">
<path fill-rule="evenodd" clip-rule="evenodd" d="M1.27273 0.272705C0.569819 0.272705 0 0.842525 0 1.54543V3.99998C0 4.70289 0.569819 5.27271 1.27273 5.27271H3.72727C4.43018 5.27271 5 4.70289 5 3.99998V1.54543C5 0.842525 4.43018 0.272705 3.72727 0.272705H1.27273ZM7.63637 0.272705C6.93347 0.272705 6.36365 0.842525 6.36365 1.54543V3.99998C6.36365 4.70289 6.93347 5.27271 7.63637 5.27271H10.0909C10.7938 5.27271 11.3636 4.70289 11.3636 3.99998V1.54543C11.3636 0.842525 10.7938 0.272705 10.0909 0.272705H7.63637ZM6.36365 7.9092C6.36365 7.20629 6.93347 6.63647 7.63637 6.63647H10.0909C10.7938 6.63647 11.3636 7.20629 11.3636 7.9092V10.3637C11.3636 11.0667 10.7938 11.6365 10.0909 11.6365H7.63637C6.93347 11.6365 6.36365 11.0667 6.36365 10.3637V7.9092ZM1.27273 6.63647C0.569819 6.63647 0 7.20629 0 7.9092V10.3637C0 11.0667 0.569819 11.6365 1.27273 11.6365H3.72727C4.43018 11.6365 5 11.0667 5 10.3637V7.9092C5 7.20629 4.43018 6.63647 3.72727 6.63647H1.27273Z"/>
</mask>
<path fill-rule="evenodd" clip-rule="evenodd" d="M1.27273 0.272705C0.569819 0.272705 0 0.842525 0 1.54543V3.99998C0 4.70289 0.569819 5.27271 1.27273 5.27271H3.72727C4.43018 5.27271 5 4.70289 5 3.99998V1.54543C5 0.842525 4.43018 0.272705 3.72727 0.272705H1.27273ZM7.63637 0.272705C6.93347 0.272705 6.36365 0.842525 6.36365 1.54543V3.99998C6.36365 4.70289 6.93347 5.27271 7.63637 5.27271H10.0909C10.7938 5.27271 11.3636 4.70289 11.3636 3.99998V1.54543C11.3636 0.842525 10.7938 0.272705 10.0909 0.272705H7.63637ZM6.36365 7.9092C6.36365 7.20629 6.93347 6.63647 7.63637 6.63647H10.0909C10.7938 6.63647 11.3636 7.20629 11.3636 7.9092V10.3637C11.3636 11.0667 10.7938 11.6365 10.0909 11.6365H7.63637C6.93347 11.6365 6.36365 11.0667 6.36365 10.3637V7.9092ZM1.27273 6.63647C0.569819 6.63647 0 7.20629 0 7.9092V10.3637C0 11.0667 0.569819 11.6365 1.27273 11.6365H3.72727C4.43018 11.6365 5 11.0667 5 10.3637V7.9092C5 7.20629 4.43018 6.63647 3.72727 6.63647H1.27273Z" fill="#FDFBF7"/>
<path d="M0.6 1.54543C0.6 1.1739 0.90119 0.872705 1.27273 0.872705V-0.327295C0.238449 -0.327295 -0.6 0.511154 -0.6 1.54543H0.6ZM0.6 3.99998V1.54543H-0.6V3.99998H0.6ZM1.27273 4.67271C0.90119 4.67271 0.6 4.37151 0.6 3.99998H-0.6C-0.6 5.03426 0.238449 5.8727 1.27273 5.8727V4.67271ZM3.72727 4.67271H1.27273V5.8727H3.72727V4.67271ZM4.4 3.99998C4.4 4.37151 4.09881 4.67271 3.72727 4.67271V5.8727C4.76155 5.8727 5.6 5.03426 5.6 3.99998H4.4ZM4.4 1.54543V3.99998H5.6V1.54543H4.4ZM3.72727 0.872705C4.09881 0.872705 4.4 1.1739 4.4 1.54543H5.6C5.6 0.511154 4.76155 -0.327295 3.72727 -0.327295V0.872705ZM1.27273 0.872705H3.72727V-0.327295H1.27273V0.872705ZM6.96365 1.54543C6.96365 1.1739 7.26484 0.872705 7.63637 0.872705V-0.327295C6.6021 -0.327295 5.76365 0.511154 5.76365 1.54543H6.96365ZM6.96365 3.99998V1.54543H5.76365V3.99998H6.96365ZM7.63637 4.67271C7.26484 4.67271 6.96365 4.37151 6.96365 3.99998H5.76365C5.76365 5.03426 6.6021 5.8727 7.63637 5.8727V4.67271ZM10.0909 4.67271H7.63637V5.8727H10.0909V4.67271ZM10.7636 3.99998C10.7636 4.37151 10.4625 4.67271 10.0909 4.67271V5.8727C11.1252 5.8727 11.9636 5.03426 11.9636 3.99998H10.7636ZM10.7636 1.54543V3.99998H11.9636V1.54543H10.7636ZM10.0909 0.872705C10.4625 0.872705 10.7636 1.1739 10.7636 1.54543H11.9636C11.9636 0.511154 11.1252 -0.327295 10.0909 -0.327295V0.872705ZM7.63637 0.872705H10.0909V-0.327295H7.63637V0.872705ZM7.63637 6.03647C6.6021 6.03647 5.76365 6.87492 5.76365 7.9092H6.96365C6.96365 7.53766 7.26484 7.23647 7.63637 7.23647V6.03647ZM10.0909 6.03647H7.63637V7.23647H10.0909V6.03647ZM11.9636 7.9092C11.9636 6.87492 11.1252 6.03647 10.0909 6.03647V7.23647C10.4625 7.23647 10.7636 7.53766 10.7636 7.9092H11.9636ZM11.9636 10.3637V7.9092H10.7636V10.3637H11.9636ZM10.0909 12.2365C11.1252 12.2365 11.9636 11.398 11.9636 10.3637H10.7636C10.7636 10.7353 10.4625 11.0365 10.0909 11.0365V12.2365ZM7.63637 12.2365H10.0909V11.0365H7.63637V12.2365ZM5.76365 10.3637C5.76365 11.398 6.6021 12.2365 7.63637 12.2365V11.0365C7.26484 11.0365 6.96365 10.7353 6.96365 10.3637H5.76365ZM5.76365 7.9092V10.3637H6.96365V7.9092H5.76365ZM0.6 7.9092C0.6 7.53766 0.90119 7.23647 1.27273 7.23647V6.03647C0.238449 6.03647 -0.6 6.87492 -0.6 7.9092H0.6ZM0.6 10.3637V7.9092H-0.6V10.3637H0.6ZM1.27273 11.0365C0.90119 11.0365 0.6 10.7353 0.6 10.3637H-0.6C-0.6 11.398 0.238449 12.2365 1.27273 12.2365V11.0365ZM3.72727 11.0365H1.27273V12.2365H3.72727V11.0365ZM4.4 10.3637C4.4 10.7353 4.09881 11.0365 3.72727 11.0365V12.2365C4.76155 12.2365 5.6 11.398 5.6 10.3637H4.4ZM4.4 7.9092V10.3637H5.6V7.9092H4.4ZM3.72727 7.23647C4.09881 7.23647 4.4 7.53766 4.4 7.9092H5.6C5.6 6.87492 4.76155 6.03647 3.72727 6.03647V7.23647ZM1.27273 7.23647H3.72727V6.03647H1.27273V7.23647Z" fill="#E9E9E9" mask="url(#path-1-inside-1_1_58)"/>
</svg>
